<mxfile host="Electron" modified="2024-05-19T13:47:59.550Z" agent="Mozilla/5.0 (Windows NT 10.0; Win64; x64) AppleWebKit/537.36 (KHTML, like Gecko) draw.io/24.1.0 Chrome/120.0.6099.109 Electron/28.1.0 Safari/537.36" etag="nYvlcun1z06RjWlQLorG" version="24.1.0" type="device">
  <diagram name="Page-1" id="b5b7bab2-c9e2-2cf4-8b2a-24fd1a2a6d21">
    <mxGraphModel dx="1434" dy="836" grid="1" gridSize="10" guides="1" tooltips="1" connect="1" arrows="1" fold="1" page="1" pageScale="1" pageWidth="827" pageHeight="1169" background="none" math="0" shadow="0">
      <root>
        <mxCell id="0" />
        <mxCell id="1" parent="0" />
        <mxCell id="cTdW70NepCCZIWqHgug1-1" value="user2 : users" style="swimlane;fontStyle=0;childLayout=stackLayout;horizontal=1;startSize=26;fillColor=none;horizontalStack=0;resizeParent=1;resizeParentMax=0;resizeLast=0;collapsible=1;marginBottom=0;whiteSpace=wrap;html=1;" parent="1" vertex="1">
          <mxGeometry x="60" y="450" width="190" height="104" as="geometry" />
        </mxCell>
        <mxCell id="cTdW70NepCCZIWqHgug1-2" value="avatar_file_id: 2" style="text;strokeColor=none;fillColor=none;align=left;verticalAlign=top;spacingLeft=4;spacingRight=4;overflow=hidden;rotatable=0;points=[[0,0.5],[1,0.5]];portConstraint=eastwest;whiteSpace=wrap;html=1;" parent="cTdW70NepCCZIWqHgug1-1" vertex="1">
          <mxGeometry y="26" width="190" height="26" as="geometry" />
        </mxCell>
        <mxCell id="qzsGJ3pXTFSO7XhK0shY-1" value="nickname: vasyok" style="text;strokeColor=none;fillColor=none;align=left;verticalAlign=top;spacingLeft=4;spacingRight=4;overflow=hidden;rotatable=0;points=[[0,0.5],[1,0.5]];portConstraint=eastwest;whiteSpace=wrap;html=1;" parent="cTdW70NepCCZIWqHgug1-1" vertex="1">
          <mxGeometry y="52" width="190" height="26" as="geometry" />
        </mxCell>
        <mxCell id="cqOTCVQTFSez_GUfT9-f-2" value="user_avatar_key:&amp;nbsp;user_avatars/user_2_avatar.jpg" style="text;strokeColor=none;fillColor=none;align=left;verticalAlign=top;spacingLeft=4;spacingRight=4;overflow=hidden;rotatable=0;points=[[0,0.5],[1,0.5]];portConstraint=eastwest;whiteSpace=wrap;html=1;" vertex="1" parent="cTdW70NepCCZIWqHgug1-1">
          <mxGeometry y="78" width="190" height="26" as="geometry" />
        </mxCell>
        <mxCell id="ExJdHabm7_KHnXWHpjVK-8" style="edgeStyle=orthogonalEdgeStyle;rounded=0;orthogonalLoop=1;jettySize=auto;html=1;entryX=0;entryY=0.654;entryDx=0;entryDy=0;endArrow=none;endFill=0;entryPerimeter=0;" parent="1" source="cTdW70NepCCZIWqHgug1-322" target="ExJdHabm7_KHnXWHpjVK-11" edge="1">
          <mxGeometry relative="1" as="geometry">
            <mxPoint x="570" y="215" as="targetPoint" />
            <Array as="points">
              <mxPoint x="510" y="440" />
              <mxPoint x="510" y="253" />
            </Array>
          </mxGeometry>
        </mxCell>
        <mxCell id="cTdW70NepCCZIWqHgug1-322" value="course1: course" style="swimlane;fontStyle=0;childLayout=stackLayout;horizontal=1;startSize=26;fillColor=none;horizontalStack=0;resizeParent=1;resizeParentMax=0;resizeLast=0;collapsible=1;marginBottom=0;whiteSpace=wrap;html=1;" parent="1" vertex="1">
          <mxGeometry x="310" y="420" width="190" height="156" as="geometry" />
        </mxCell>
        <mxCell id="cTdW70NepCCZIWqHgug1-323" value="creator_id: 2" style="text;strokeColor=none;fillColor=none;align=left;verticalAlign=top;spacingLeft=4;spacingRight=4;overflow=hidden;rotatable=0;points=[[0,0.5],[1,0.5]];portConstraint=eastwest;whiteSpace=wrap;html=1;" parent="cTdW70NepCCZIWqHgug1-322" vertex="1">
          <mxGeometry y="26" width="190" height="26" as="geometry" />
        </mxCell>
        <mxCell id="cTdW70NepCCZIWqHgug1-324" value="title: example title" style="text;strokeColor=none;fillColor=none;align=left;verticalAlign=top;spacingLeft=4;spacingRight=4;overflow=hidden;rotatable=0;points=[[0,0.5],[1,0.5]];portConstraint=eastwest;whiteSpace=wrap;html=1;" parent="cTdW70NepCCZIWqHgug1-322" vertex="1">
          <mxGeometry y="52" width="190" height="26" as="geometry" />
        </mxCell>
        <mxCell id="cTdW70NepCCZIWqHgug1-325" value="published_date: 06-04-2024" style="text;strokeColor=none;fillColor=none;align=left;verticalAlign=top;spacingLeft=4;spacingRight=4;overflow=hidden;rotatable=0;points=[[0,0.5],[1,0.5]];portConstraint=eastwest;whiteSpace=wrap;html=1;" parent="cTdW70NepCCZIWqHgug1-322" vertex="1">
          <mxGeometry y="78" width="190" height="26" as="geometry" />
        </mxCell>
        <mxCell id="GGQ7iSAOQ_vFK_jtie28-1" value="status:&amp;nbsp;PUBLISHED" style="text;strokeColor=none;fillColor=none;align=left;verticalAlign=top;spacingLeft=4;spacingRight=4;overflow=hidden;rotatable=0;points=[[0,0.5],[1,0.5]];portConstraint=eastwest;whiteSpace=wrap;html=1;" parent="cTdW70NepCCZIWqHgug1-322" vertex="1">
          <mxGeometry y="104" width="190" height="26" as="geometry" />
        </mxCell>
        <mxCell id="cqOTCVQTFSez_GUfT9-f-1" value="course_avatar_key:course_avatars/course_1_avatar.jpg" style="text;strokeColor=none;fillColor=none;align=left;verticalAlign=top;spacingLeft=4;spacingRight=4;overflow=hidden;rotatable=0;points=[[0,0.5],[1,0.5]];portConstraint=eastwest;whiteSpace=wrap;html=1;" vertex="1" parent="cTdW70NepCCZIWqHgug1-322">
          <mxGeometry y="130" width="190" height="26" as="geometry" />
        </mxCell>
        <mxCell id="cTdW70NepCCZIWqHgug1-327" style="edgeStyle=orthogonalEdgeStyle;rounded=0;orthogonalLoop=1;jettySize=auto;html=1;endArrow=none;endFill=0;" parent="1" target="cTdW70NepCCZIWqHgug1-324" edge="1">
          <mxGeometry relative="1" as="geometry">
            <mxPoint x="250" y="485" as="sourcePoint" />
          </mxGeometry>
        </mxCell>
        <mxCell id="cTdW70NepCCZIWqHgug1-336" style="edgeStyle=orthogonalEdgeStyle;rounded=0;orthogonalLoop=1;jettySize=auto;html=1;entryX=0;entryY=0.5;entryDx=0;entryDy=0;exitX=1;exitY=0.25;exitDx=0;exitDy=0;endArrow=none;endFill=0;" parent="1" source="cTdW70NepCCZIWqHgug1-328" target="cTdW70NepCCZIWqHgug1-325" edge="1">
          <mxGeometry relative="1" as="geometry">
            <mxPoint x="245" y="696" as="sourcePoint" />
            <Array as="points">
              <mxPoint x="280" y="696" />
              <mxPoint x="280" y="511" />
            </Array>
          </mxGeometry>
        </mxCell>
        <mxCell id="cTdW70NepCCZIWqHgug1-328" value="user3 : users" style="swimlane;fontStyle=0;childLayout=stackLayout;horizontal=1;startSize=26;fillColor=none;horizontalStack=0;resizeParent=1;resizeParentMax=0;resizeLast=0;collapsible=1;marginBottom=0;whiteSpace=wrap;html=1;" parent="1" vertex="1">
          <mxGeometry x="65" y="683" width="180" height="104" as="geometry" />
        </mxCell>
        <mxCell id="cTdW70NepCCZIWqHgug1-329" value="avatar_file_id: NULL" style="text;strokeColor=none;fillColor=none;align=left;verticalAlign=top;spacingLeft=4;spacingRight=4;overflow=hidden;rotatable=0;points=[[0,0.5],[1,0.5]];portConstraint=eastwest;whiteSpace=wrap;html=1;" parent="cTdW70NepCCZIWqHgug1-328" vertex="1">
          <mxGeometry y="26" width="180" height="26" as="geometry" />
        </mxCell>
        <mxCell id="qzsGJ3pXTFSO7XhK0shY-2" value="nickname: nikita2010" style="text;strokeColor=none;fillColor=none;align=left;verticalAlign=top;spacingLeft=4;spacingRight=4;overflow=hidden;rotatable=0;points=[[0,0.5],[1,0.5]];portConstraint=eastwest;whiteSpace=wrap;html=1;" parent="cTdW70NepCCZIWqHgug1-328" vertex="1">
          <mxGeometry y="52" width="180" height="26" as="geometry" />
        </mxCell>
        <mxCell id="cqOTCVQTFSez_GUfT9-f-4" value="user_avatar_key:&amp;nbsp;user_avatars/user_3_avatar.jpg" style="text;strokeColor=none;fillColor=none;align=left;verticalAlign=top;spacingLeft=4;spacingRight=4;overflow=hidden;rotatable=0;points=[[0,0.5],[1,0.5]];portConstraint=eastwest;whiteSpace=wrap;html=1;" vertex="1" parent="cTdW70NepCCZIWqHgug1-328">
          <mxGeometry y="78" width="180" height="26" as="geometry" />
        </mxCell>
        <mxCell id="cTdW70NepCCZIWqHgug1-343" style="edgeStyle=orthogonalEdgeStyle;rounded=0;orthogonalLoop=1;jettySize=auto;html=1;entryX=0.5;entryY=1;entryDx=0;entryDy=0;endArrow=none;endFill=0;" parent="1" source="cTdW70NepCCZIWqHgug1-337" target="cTdW70NepCCZIWqHgug1-322" edge="1">
          <mxGeometry relative="1" as="geometry" />
        </mxCell>
        <mxCell id="cTdW70NepCCZIWqHgug1-337" value="course_rating1: course_rating" style="swimlane;fontStyle=0;childLayout=stackLayout;horizontal=1;startSize=26;fillColor=none;horizontalStack=0;resizeParent=1;resizeParentMax=0;resizeLast=0;collapsible=1;marginBottom=0;whiteSpace=wrap;html=1;" parent="1" vertex="1">
          <mxGeometry x="310" y="657" width="190" height="104" as="geometry" />
        </mxCell>
        <mxCell id="cTdW70NepCCZIWqHgug1-338" value="user_id: 3" style="text;strokeColor=none;fillColor=none;align=left;verticalAlign=top;spacingLeft=4;spacingRight=4;overflow=hidden;rotatable=0;points=[[0,0.5],[1,0.5]];portConstraint=eastwest;whiteSpace=wrap;html=1;" parent="cTdW70NepCCZIWqHgug1-337" vertex="1">
          <mxGeometry y="26" width="190" height="26" as="geometry" />
        </mxCell>
        <mxCell id="cTdW70NepCCZIWqHgug1-339" value="course_id: 1" style="text;strokeColor=none;fillColor=none;align=left;verticalAlign=top;spacingLeft=4;spacingRight=4;overflow=hidden;rotatable=0;points=[[0,0.5],[1,0.5]];portConstraint=eastwest;whiteSpace=wrap;html=1;" parent="cTdW70NepCCZIWqHgug1-337" vertex="1">
          <mxGeometry y="52" width="190" height="26" as="geometry" />
        </mxCell>
        <mxCell id="cTdW70NepCCZIWqHgug1-340" value="value: 5" style="text;strokeColor=none;fillColor=none;align=left;verticalAlign=top;spacingLeft=4;spacingRight=4;overflow=hidden;rotatable=0;points=[[0,0.5],[1,0.5]];portConstraint=eastwest;whiteSpace=wrap;html=1;" parent="cTdW70NepCCZIWqHgug1-337" vertex="1">
          <mxGeometry y="78" width="190" height="26" as="geometry" />
        </mxCell>
        <mxCell id="cTdW70NepCCZIWqHgug1-341" style="edgeStyle=orthogonalEdgeStyle;rounded=0;orthogonalLoop=1;jettySize=auto;html=1;entryX=0;entryY=0.5;entryDx=0;entryDy=0;startArrow=none;startFill=0;endArrow=none;endFill=0;" parent="1" target="cTdW70NepCCZIWqHgug1-339" edge="1">
          <mxGeometry relative="1" as="geometry">
            <mxPoint x="245" y="722" as="sourcePoint" />
          </mxGeometry>
        </mxCell>
        <mxCell id="cTdW70NepCCZIWqHgug1-352" value="course_section1: course_section" style="swimlane;fontStyle=0;childLayout=stackLayout;horizontal=1;startSize=26;fillColor=none;horizontalStack=0;resizeParent=1;resizeParentMax=0;resizeLast=0;collapsible=1;marginBottom=0;whiteSpace=wrap;html=1;" parent="1" vertex="1">
          <mxGeometry x="550" y="316" width="220" height="104" as="geometry" />
        </mxCell>
        <mxCell id="cTdW70NepCCZIWqHgug1-353" value="course_id: 1" style="text;strokeColor=none;fillColor=none;align=left;verticalAlign=top;spacingLeft=4;spacingRight=4;overflow=hidden;rotatable=0;points=[[0,0.5],[1,0.5]];portConstraint=eastwest;whiteSpace=wrap;html=1;" parent="cTdW70NepCCZIWqHgug1-352" vertex="1">
          <mxGeometry y="26" width="220" height="26" as="geometry" />
        </mxCell>
        <mxCell id="cTdW70NepCCZIWqHgug1-354" value="content: first part of the course" style="text;strokeColor=none;fillColor=none;align=left;verticalAlign=top;spacingLeft=4;spacingRight=4;overflow=hidden;rotatable=0;points=[[0,0.5],[1,0.5]];portConstraint=eastwest;whiteSpace=wrap;html=1;" parent="cTdW70NepCCZIWqHgug1-352" vertex="1">
          <mxGeometry y="52" width="220" height="26" as="geometry" />
        </mxCell>
        <mxCell id="cTdW70NepCCZIWqHgug1-355" value="sections_number: 1" style="text;strokeColor=none;fillColor=none;align=left;verticalAlign=top;spacingLeft=4;spacingRight=4;overflow=hidden;rotatable=0;points=[[0,0.5],[1,0.5]];portConstraint=eastwest;whiteSpace=wrap;html=1;" parent="cTdW70NepCCZIWqHgug1-352" vertex="1">
          <mxGeometry y="78" width="220" height="26" as="geometry" />
        </mxCell>
        <mxCell id="cTdW70NepCCZIWqHgug1-356" value="course_section1: course_section" style="swimlane;fontStyle=0;childLayout=stackLayout;horizontal=1;startSize=26;fillColor=none;horizontalStack=0;resizeParent=1;resizeParentMax=0;resizeLast=0;collapsible=1;marginBottom=0;whiteSpace=wrap;html=1;" parent="1" vertex="1">
          <mxGeometry x="550" y="540" width="220" height="104" as="geometry" />
        </mxCell>
        <mxCell id="cTdW70NepCCZIWqHgug1-357" value="course_id: 1" style="text;strokeColor=none;fillColor=none;align=left;verticalAlign=top;spacingLeft=4;spacingRight=4;overflow=hidden;rotatable=0;points=[[0,0.5],[1,0.5]];portConstraint=eastwest;whiteSpace=wrap;html=1;" parent="cTdW70NepCCZIWqHgug1-356" vertex="1">
          <mxGeometry y="26" width="220" height="26" as="geometry" />
        </mxCell>
        <mxCell id="cTdW70NepCCZIWqHgug1-358" value="content: second part of the course" style="text;strokeColor=none;fillColor=none;align=left;verticalAlign=top;spacingLeft=4;spacingRight=4;overflow=hidden;rotatable=0;points=[[0,0.5],[1,0.5]];portConstraint=eastwest;whiteSpace=wrap;html=1;" parent="cTdW70NepCCZIWqHgug1-356" vertex="1">
          <mxGeometry y="52" width="220" height="26" as="geometry" />
        </mxCell>
        <mxCell id="cTdW70NepCCZIWqHgug1-359" value="sections_number: 2" style="text;strokeColor=none;fillColor=none;align=left;verticalAlign=top;spacingLeft=4;spacingRight=4;overflow=hidden;rotatable=0;points=[[0,0.5],[1,0.5]];portConstraint=eastwest;whiteSpace=wrap;html=1;" parent="cTdW70NepCCZIWqHgug1-356" vertex="1">
          <mxGeometry y="78" width="220" height="26" as="geometry" />
        </mxCell>
        <mxCell id="cTdW70NepCCZIWqHgug1-360" style="edgeStyle=orthogonalEdgeStyle;rounded=0;orthogonalLoop=1;jettySize=auto;html=1;entryX=0;entryY=0.25;entryDx=0;entryDy=0;startArrow=none;startFill=0;endArrow=none;endFill=0;" parent="1" source="cTdW70NepCCZIWqHgug1-324" target="cTdW70NepCCZIWqHgug1-356" edge="1">
          <mxGeometry relative="1" as="geometry" />
        </mxCell>
        <mxCell id="cTdW70NepCCZIWqHgug1-362" style="edgeStyle=orthogonalEdgeStyle;rounded=0;orthogonalLoop=1;jettySize=auto;html=1;entryX=0.009;entryY=0.784;entryDx=0;entryDy=0;entryPerimeter=0;endArrow=none;endFill=0;" parent="1" source="cTdW70NepCCZIWqHgug1-323" target="cTdW70NepCCZIWqHgug1-354" edge="1">
          <mxGeometry relative="1" as="geometry" />
        </mxCell>
        <mxCell id="cTdW70NepCCZIWqHgug1-374" value="learning_progress1: learning_progress" style="swimlane;fontStyle=0;childLayout=stackLayout;horizontal=1;startSize=26;fillColor=none;horizontalStack=0;resizeParent=1;resizeParentMax=0;resizeLast=0;collapsible=1;marginBottom=0;whiteSpace=wrap;html=1;" parent="1" vertex="1">
          <mxGeometry x="550" y="870" width="220" height="104" as="geometry" />
        </mxCell>
        <mxCell id="cTdW70NepCCZIWqHgug1-375" value="user_id: 3" style="text;strokeColor=none;fillColor=none;align=left;verticalAlign=top;spacingLeft=4;spacingRight=4;overflow=hidden;rotatable=0;points=[[0,0.5],[1,0.5]];portConstraint=eastwest;whiteSpace=wrap;html=1;" parent="cTdW70NepCCZIWqHgug1-374" vertex="1">
          <mxGeometry y="26" width="220" height="26" as="geometry" />
        </mxCell>
        <mxCell id="cTdW70NepCCZIWqHgug1-376" value="section_id: 1" style="text;strokeColor=none;fillColor=none;align=left;verticalAlign=top;spacingLeft=4;spacingRight=4;overflow=hidden;rotatable=0;points=[[0,0.5],[1,0.5]];portConstraint=eastwest;whiteSpace=wrap;html=1;" parent="cTdW70NepCCZIWqHgug1-374" vertex="1">
          <mxGeometry y="52" width="220" height="26" as="geometry" />
        </mxCell>
        <mxCell id="cTdW70NepCCZIWqHgug1-377" value="is_completed: TRUE" style="text;strokeColor=none;fillColor=none;align=left;verticalAlign=top;spacingLeft=4;spacingRight=4;overflow=hidden;rotatable=0;points=[[0,0.5],[1,0.5]];portConstraint=eastwest;whiteSpace=wrap;html=1;" parent="cTdW70NepCCZIWqHgug1-374" vertex="1">
          <mxGeometry y="78" width="220" height="26" as="geometry" />
        </mxCell>
        <mxCell id="cTdW70NepCCZIWqHgug1-389" style="edgeStyle=orthogonalEdgeStyle;rounded=0;orthogonalLoop=1;jettySize=auto;html=1;entryX=0;entryY=0.5;entryDx=0;entryDy=0;endArrow=none;endFill=0;exitX=1;exitY=0.5;exitDx=0;exitDy=0;" parent="1" source="cTdW70NepCCZIWqHgug1-381" target="cTdW70NepCCZIWqHgug1-359" edge="1">
          <mxGeometry relative="1" as="geometry">
            <Array as="points">
              <mxPoint x="530" y="865" />
              <mxPoint x="530" y="631" />
            </Array>
          </mxGeometry>
        </mxCell>
        <mxCell id="cTdW70NepCCZIWqHgug1-379" value="learning_progress2: learning_progress" style="swimlane;fontStyle=0;childLayout=stackLayout;horizontal=1;startSize=26;fillColor=none;horizontalStack=0;resizeParent=1;resizeParentMax=0;resizeLast=0;collapsible=1;marginBottom=0;whiteSpace=wrap;html=1;" parent="1" vertex="1">
          <mxGeometry x="275" y="800" width="220" height="104" as="geometry" />
        </mxCell>
        <mxCell id="cTdW70NepCCZIWqHgug1-380" value="user_id: 3" style="text;strokeColor=none;fillColor=none;align=left;verticalAlign=top;spacingLeft=4;spacingRight=4;overflow=hidden;rotatable=0;points=[[0,0.5],[1,0.5]];portConstraint=eastwest;whiteSpace=wrap;html=1;" parent="cTdW70NepCCZIWqHgug1-379" vertex="1">
          <mxGeometry y="26" width="220" height="26" as="geometry" />
        </mxCell>
        <mxCell id="cTdW70NepCCZIWqHgug1-381" value="section_id: 2" style="text;strokeColor=none;fillColor=none;align=left;verticalAlign=top;spacingLeft=4;spacingRight=4;overflow=hidden;rotatable=0;points=[[0,0.5],[1,0.5]];portConstraint=eastwest;whiteSpace=wrap;html=1;" parent="cTdW70NepCCZIWqHgug1-379" vertex="1">
          <mxGeometry y="52" width="220" height="26" as="geometry" />
        </mxCell>
        <mxCell id="cTdW70NepCCZIWqHgug1-382" value="is_completed: FALSE" style="text;strokeColor=none;fillColor=none;align=left;verticalAlign=top;spacingLeft=4;spacingRight=4;overflow=hidden;rotatable=0;points=[[0,0.5],[1,0.5]];portConstraint=eastwest;whiteSpace=wrap;html=1;" parent="cTdW70NepCCZIWqHgug1-379" vertex="1">
          <mxGeometry y="78" width="220" height="26" as="geometry" />
        </mxCell>
        <mxCell id="cTdW70NepCCZIWqHgug1-383" style="edgeStyle=orthogonalEdgeStyle;rounded=0;orthogonalLoop=1;jettySize=auto;html=1;entryX=1;entryY=0.5;entryDx=0;entryDy=0;endArrow=none;endFill=0;" parent="1" source="cTdW70NepCCZIWqHgug1-354" target="cTdW70NepCCZIWqHgug1-376" edge="1">
          <mxGeometry relative="1" as="geometry">
            <Array as="points">
              <mxPoint x="790" y="381" />
              <mxPoint x="790" y="935" />
            </Array>
          </mxGeometry>
        </mxCell>
        <mxCell id="cTdW70NepCCZIWqHgug1-385" style="edgeStyle=orthogonalEdgeStyle;rounded=0;orthogonalLoop=1;jettySize=auto;html=1;endArrow=none;endFill=0;exitX=0;exitY=0.5;exitDx=0;exitDy=0;" parent="1" source="cTdW70NepCCZIWqHgug1-376" edge="1" target="cqOTCVQTFSez_GUfT9-f-4">
          <mxGeometry relative="1" as="geometry">
            <Array as="points">
              <mxPoint x="129" y="935" />
            </Array>
            <mxPoint x="129" y="790" as="targetPoint" />
          </mxGeometry>
        </mxCell>
        <mxCell id="cTdW70NepCCZIWqHgug1-386" style="edgeStyle=orthogonalEdgeStyle;rounded=0;orthogonalLoop=1;jettySize=auto;html=1;endArrow=none;endFill=0;exitX=0;exitY=0.5;exitDx=0;exitDy=0;" parent="1" source="cTdW70NepCCZIWqHgug1-381" edge="1" target="cqOTCVQTFSez_GUfT9-f-4">
          <mxGeometry relative="1" as="geometry">
            <Array as="points">
              <mxPoint x="190" y="865" />
            </Array>
            <mxPoint x="190" y="790" as="targetPoint" />
          </mxGeometry>
        </mxCell>
        <mxCell id="cTdW70NepCCZIWqHgug1-407" value="user1 : users" style="swimlane;fontStyle=0;childLayout=stackLayout;horizontal=1;startSize=26;fillColor=none;horizontalStack=0;resizeParent=1;resizeParentMax=0;resizeLast=0;collapsible=1;marginBottom=0;whiteSpace=wrap;html=1;" parent="1" vertex="1">
          <mxGeometry x="310" y="50" width="190" height="104" as="geometry" />
        </mxCell>
        <mxCell id="cTdW70NepCCZIWqHgug1-408" value="avatar_file_id: NULL" style="text;strokeColor=none;fillColor=none;align=left;verticalAlign=top;spacingLeft=4;spacingRight=4;overflow=hidden;rotatable=0;points=[[0,0.5],[1,0.5]];portConstraint=eastwest;whiteSpace=wrap;html=1;" parent="cTdW70NepCCZIWqHgug1-407" vertex="1">
          <mxGeometry y="26" width="190" height="26" as="geometry" />
        </mxCell>
        <mxCell id="qzsGJ3pXTFSO7XhK0shY-3" value="nickname: kat" style="text;strokeColor=none;fillColor=none;align=left;verticalAlign=top;spacingLeft=4;spacingRight=4;overflow=hidden;rotatable=0;points=[[0,0.5],[1,0.5]];portConstraint=eastwest;whiteSpace=wrap;html=1;" parent="cTdW70NepCCZIWqHgug1-407" vertex="1">
          <mxGeometry y="52" width="190" height="26" as="geometry" />
        </mxCell>
        <mxCell id="cqOTCVQTFSez_GUfT9-f-3" value="user_avatar_key:&amp;nbsp;user_avatars/user_1_avatar.jpg" style="text;strokeColor=none;fillColor=none;align=left;verticalAlign=top;spacingLeft=4;spacingRight=4;overflow=hidden;rotatable=0;points=[[0,0.5],[1,0.5]];portConstraint=eastwest;whiteSpace=wrap;html=1;" vertex="1" parent="cTdW70NepCCZIWqHgug1-407">
          <mxGeometry y="78" width="190" height="26" as="geometry" />
        </mxCell>
        <mxCell id="cTdW70NepCCZIWqHgug1-428" style="edgeStyle=orthogonalEdgeStyle;rounded=0;orthogonalLoop=1;jettySize=auto;html=1;entryX=0.5;entryY=0;entryDx=0;entryDy=0;endArrow=none;endFill=0;" parent="1" source="cTdW70NepCCZIWqHgug1-407" target="cTdW70NepCCZIWqHgug1-322" edge="1">
          <mxGeometry relative="1" as="geometry">
            <mxPoint x="395" y="160" as="targetPoint" />
          </mxGeometry>
        </mxCell>
        <mxCell id="-hQUeHI8HNlFyrUoPAJZ-56" value="notification1: notification" style="swimlane;fontStyle=0;childLayout=stackLayout;horizontal=1;startSize=26;fillColor=none;horizontalStack=0;resizeParent=1;resizeParentMax=0;resizeLast=0;collapsible=1;marginBottom=0;whiteSpace=wrap;html=1;" parent="1" vertex="1">
          <mxGeometry x="20" y="270" width="220" height="130" as="geometry" />
        </mxCell>
        <mxCell id="-hQUeHI8HNlFyrUoPAJZ-57" value="sender_id: 1" style="text;strokeColor=none;fillColor=none;align=left;verticalAlign=top;spacingLeft=4;spacingRight=4;overflow=hidden;rotatable=0;points=[[0,0.5],[1,0.5]];portConstraint=eastwest;whiteSpace=wrap;html=1;" parent="-hQUeHI8HNlFyrUoPAJZ-56" vertex="1">
          <mxGeometry y="26" width="220" height="26" as="geometry" />
        </mxCell>
        <mxCell id="-hQUeHI8HNlFyrUoPAJZ-58" value="title: update 1.1.2" style="text;strokeColor=none;fillColor=none;align=left;verticalAlign=top;spacingLeft=4;spacingRight=4;overflow=hidden;rotatable=0;points=[[0,0.5],[1,0.5]];portConstraint=eastwest;whiteSpace=wrap;html=1;" parent="-hQUeHI8HNlFyrUoPAJZ-56" vertex="1">
          <mxGeometry y="52" width="220" height="26" as="geometry" />
        </mxCell>
        <mxCell id="-hQUeHI8HNlFyrUoPAJZ-59" value="message: There was an update today" style="text;strokeColor=none;fillColor=none;align=left;verticalAlign=top;spacingLeft=4;spacingRight=4;overflow=hidden;rotatable=0;points=[[0,0.5],[1,0.5]];portConstraint=eastwest;whiteSpace=wrap;html=1;" parent="-hQUeHI8HNlFyrUoPAJZ-56" vertex="1">
          <mxGeometry y="78" width="220" height="26" as="geometry" />
        </mxCell>
        <mxCell id="-hQUeHI8HNlFyrUoPAJZ-60" value="created_at: 08-04-2024 21:30" style="text;strokeColor=none;fillColor=none;align=left;verticalAlign=top;spacingLeft=4;spacingRight=4;overflow=hidden;rotatable=0;points=[[0,0.5],[1,0.5]];portConstraint=eastwest;whiteSpace=wrap;html=1;" parent="-hQUeHI8HNlFyrUoPAJZ-56" vertex="1">
          <mxGeometry y="104" width="220" height="26" as="geometry" />
        </mxCell>
        <mxCell id="-hQUeHI8HNlFyrUoPAJZ-91" style="edgeStyle=orthogonalEdgeStyle;rounded=0;orthogonalLoop=1;jettySize=auto;html=1;entryX=0.464;entryY=-0.008;entryDx=0;entryDy=0;endArrow=none;endFill=0;exitX=0;exitY=0.5;exitDx=0;exitDy=0;entryPerimeter=0;" parent="1" source="cTdW70NepCCZIWqHgug1-408" target="-hQUeHI8HNlFyrUoPAJZ-56" edge="1">
          <mxGeometry relative="1" as="geometry">
            <Array as="points">
              <mxPoint x="122" y="89" />
            </Array>
          </mxGeometry>
        </mxCell>
        <mxCell id="ExJdHabm7_KHnXWHpjVK-10" value="tag1: tag" style="swimlane;fontStyle=0;childLayout=stackLayout;horizontal=1;startSize=26;fillColor=none;horizontalStack=0;resizeParent=1;resizeParentMax=0;resizeLast=0;collapsible=1;marginBottom=0;whiteSpace=wrap;html=1;" parent="1" vertex="1">
          <mxGeometry x="570" y="210" width="140" height="78" as="geometry" />
        </mxCell>
        <mxCell id="ExJdHabm7_KHnXWHpjVK-11" value="tag_id: 1" style="text;strokeColor=none;fillColor=none;align=left;verticalAlign=top;spacingLeft=4;spacingRight=4;overflow=hidden;rotatable=0;points=[[0,0.5],[1,0.5]];portConstraint=eastwest;whiteSpace=wrap;html=1;" parent="ExJdHabm7_KHnXWHpjVK-10" vertex="1">
          <mxGeometry y="26" width="140" height="26" as="geometry" />
        </mxCell>
        <mxCell id="ExJdHabm7_KHnXWHpjVK-12" value="tag_name: sprot" style="text;strokeColor=none;fillColor=none;align=left;verticalAlign=top;spacingLeft=4;spacingRight=4;overflow=hidden;rotatable=0;points=[[0,0.5],[1,0.5]];portConstraint=eastwest;whiteSpace=wrap;html=1;" parent="ExJdHabm7_KHnXWHpjVK-10" vertex="1">
          <mxGeometry y="52" width="140" height="26" as="geometry" />
        </mxCell>
      </root>
    </mxGraphModel>
  </diagram>
</mxfile>
